<?xml version="1.0" standalone="no"?>
<!DOCTYPE svg PUBLIC "-//W3C//DTD SVG 20010904//EN"
 "http://www.w3.org/TR/2001/REC-SVG-20010904/DTD/svg10.dtd">
<svg version="1.0" xmlns="http://www.w3.org/2000/svg"
 width="433.000000pt" height="577.000000pt" viewBox="0 0 433.000000 577.000000"
 preserveAspectRatio="xMidYMid meet">

<g transform="translate(0.000000,577.000000) scale(0.100000,-0.100000)"
fill="#000000" stroke="none">
<path d="M4009 5158 c-118 -139 -233 -307 -298 -436 -61 -120 -142 -375 -206
-647 -20 -82 -58 -217 -85 -300 -61 -186 -154 -510 -170 -590 -6 -33 -22 -103
-35 -155 -13 -52 -29 -121 -35 -153 -6 -32 -14 -57 -16 -54 -3 2 -27 69 -54
148 -111 322 -225 488 -438 642 -490 353 -1012 411 -1481 166 -519 -271 -864
-869 -952 -1649 -13 -115 -16 -500 -5 -567 l8 -43 -54 -24 c-149 -67 -205
-159 -170 -281 62 -217 525 -435 923 -435 54 0 99 -2 99 -5 0 -4 -6 -18 -13
-33 -7 -15 -19 -51 -27 -81 -12 -53 -12 -55 11 -74 35 -29 131 -18 249 28 l94
36 40 -29 c88 -63 100 -66 169 -42 34 11 85 33 113 48 40 23 56 26 80 20 38
-11 89 -2 110 20 10 10 29 15 49 13 102 -8 415 54 562 112 l61 25 38 -26 c52
-35 145 -62 212 -62 70 0 117 26 138 75 13 31 16 34 40 25 68 -26 136 -5 165
52 25 49 24 75 -6 134 -14 27 -25 50 -25 51 0 2 19 0 43 -3 129 -16 216 138
328 584 27 107 51 197 53 200 2 4 25 90 51 192 25 102 51 195 58 208 6 12 29
31 52 41 52 23 82 69 99 152 l12 63 39 0 c36 1 38 3 51 46 19 61 48 178 69
275 9 44 34 145 55 225 21 80 59 235 85 345 48 199 170 660 181 677 15 24 35
202 41 359 7 197 -2 267 -48 389 -15 41 -40 117 -54 169 -14 52 -33 107 -40
122 -15 28 -95 99 -112 99 -5 0 -29 -24 -54 -52z m106 -34 c26 -28 39 -59 60
-137 16 -56 39 -128 52 -160 38 -92 53 -187 53 -328 0 -230 -11 -299 -100
-619 -22 -80 -69 -264 -105 -410 -36 -146 -81 -326 -100 -400 -19 -74 -42
-169 -51 -210 -30 -138 -74 -304 -83 -313 -6 -6 -22 -5 -42 2 -17 6 -43 11
-55 11 -31 0 -30 18 2 81 14 28 33 90 44 137 10 48 39 146 65 217 73 202 121
360 145 475 12 58 35 157 51 221 103 415 122 533 123 754 0 123 -4 163 -21
220 -29 98 -97 279 -132 350 l-30 59 35 43 c20 24 40 43 46 43 6 0 25 -16 43
-36z m-120 -155 c56 -125 116 -304 131 -391 13 -77 14 -113 4 -237 -13 -169
-25 -238 -86 -491 -25 -102 -63 -264 -84 -361 -22 -96 -65 -247 -96 -335 -65
-186 -105 -313 -127 -404 -9 -36 -27 -90 -40 -121 l-25 -56 -104 22 c-57 13
-143 30 -193 39 -102 20 -172 47 -182 72 -6 17 -1 49 36 209 11 44 31 134 45
200 33 149 123 467 181 640 24 72 71 238 104 370 75 303 152 520 233 663 58
100 156 240 169 241 4 1 19 -26 34 -60z m-2464 -1399 c225 -42 397 -260 411
-519 l3 -65 -45 -11 c-181 -47 -207 -156 -51 -216 68 -27 266 -38 351 -20 212
44 248 165 68 228 l-48 18 0 56 c0 161 146 429 260 477 257 107 571 -363 675
-1010 27 -167 36 -290 36 -483 0 -439 -94 -765 -259 -903 -161 -134 -455 -271
-708 -331 -111 -26 -272 -43 -324 -35 -32 5 -41 12 -56 46 -39 87 -144 161
-262 187 -64 13 -162 14 -217 1 -34 -8 -43 -6 -63 12 -35 34 -53 111 -59 248
-10 257 60 612 183 915 24 61 44 117 44 126 0 28 -24 39 -82 39 -139 0 -243
43 -344 144 -117 118 -168 250 -167 436 1 318 203 596 476 655 77 17 110 18
178 5z m662 -631 c31 -7 54 -15 52 -20 -3 -4 0 -11 6 -15 8 -4 9 -3 5 4 -11
19 16 14 52 -8 41 -25 39 -46 -7 -77 -46 -31 -91 -42 -196 -49 -158 -10 -310
32 -310 85 0 65 236 112 398 80z m851 -1909 c43 -47 52 -80 36 -120 -11 -27
-17 -30 -54 -30 -23 0 -59 9 -81 20 -47 24 -49 24 -69 5 -12 -12 -13 -22 -6
-41 27 -71 -62 -99 -190 -60 -25 8 -44 18 -43 24 1 5 -8 8 -20 5 -12 -3 21 18
74 45 105 54 189 106 258 158 24 19 47 34 51 34 4 0 24 -18 44 -40z m-1432
-110 c47 -14 134 -73 131 -88 -2 -7 2 -11 8 -9 12 2 44 -53 54 -95 6 -25 4
-28 -16 -28 -13 0 -41 4 -62 9 -21 5 -36 7 -33 4 11 -11 -32 -33 -51 -27 -12
4 -14 3 -6 -3 9 -6 -4 -17 -42 -36 -31 -15 -63 -27 -73 -27 -26 0 -127 57
-124 70 1 6 -2 9 -8 5 -6 -4 -17 -1 -25 5 -12 10 -29 7 -82 -15 -101 -40 -153
-55 -200 -55 -41 0 -41 1 -33 28 18 59 21 64 39 50 14 -12 15 -11 2 5 -11 14
-11 20 0 35 33 44 63 71 72 65 6 -3 7 -1 3 5 -13 22 85 79 184 107 61 17 198
14 262 -5z"/>
<path d="M2582 3059 c-146 -25 -187 -116 -75 -169 58 -27 187 -37 266 -21 106
23 150 92 92 145 -44 41 -182 63 -283 45z"/>
<path d="M1263 3010 c-90 -19 -133 -62 -114 -113 13 -33 50 -55 123 -72 125
-29 283 -14 338 32 58 48 31 105 -65 138 -58 19 -220 28 -282 15z"/>
</g>
</svg>
